<?xml version="1.0" encoding="UTF-8"?>
<!DOCTYPE svg PUBLIC "-//W3C//DTD SVG 1.1//EN" "http://www.w3.org/Graphics/SVG/1.1/DTD/svg11.dtd">
<svg xmlns="http://www.w3.org/2000/svg" version="1.1" width="400px" height="400px" style="shape-rendering:geometricPrecision; text-rendering:geometricPrecision; image-rendering:optimizeQuality; fill-rule:evenodd; clip-rule:evenodd" xmlns:xlink="http://www.w3.org/1999/xlink">
<g><path style="opacity:1" fill="#000c14" d="M -0.5,-0.5 C 132.833,-0.5 266.167,-0.5 399.5,-0.5C 399.5,132.833 399.5,266.167 399.5,399.5C 266.167,399.5 132.833,399.5 -0.5,399.5C -0.5,266.167 -0.5,132.833 -0.5,-0.5 Z"/></g>
<g><path style="opacity:1" fill="#031a3c" d="M 219.5,23.5 C 226.18,23.6123 232.847,23.9457 239.5,24.5C 239.5,25.5 239.5,26.5 239.5,27.5C 232.716,26.151 226.05,24.8177 219.5,23.5 Z"/></g>
<g><path style="opacity:1" fill="#05162b" d="M 69.5,79.5 C 62.4195,87.9056 55.7528,96.5722 49.5,105.5C 50.5236,102.445 51.8569,99.4451 53.5,96.5C 55.5666,93.8238 57.5666,91.1572 59.5,88.5C 59.0233,87.5224 58.3567,86.6891 57.5,86C 58.1258,85.2496 58.6258,84.4162 59,83.5C 59.7387,84.5742 60.7387,85.2409 62,85.5C 64.1249,82.8584 66.6249,80.8584 69.5,79.5 Z"/></g>
<g><path style="opacity:1" fill="#0574b6" d="M 219.5,23.5 C 226.05,24.8177 232.716,26.151 239.5,27.5C 309.263,46.264 353.596,90.264 372.5,159.5C 377.833,186.167 377.833,212.833 372.5,239.5C 350.7,315.126 301.033,360.293 223.5,375C 168.448,381.265 120.448,366.098 79.5,329.5C 68.3401,318.351 58.3401,306.351 49.5,293.5C 39.6355,276.583 32.3022,258.583 27.5,239.5C 27.5276,234.138 27.1942,228.805 26.5,223.5C 27.5,223.5 28.5,223.5 29.5,223.5C 29.9332,228.833 30.4332,234.166 31,239.5C 31.1667,237.5 31.3333,235.5 31.5,233.5C 30.1338,214.189 29.1338,194.855 28.5,175.5C 27.8333,186.167 27.1667,196.833 26.5,207.5C 25.3888,194.169 25.3888,180.835 26.5,167.5C 27.7437,156.123 30.5771,145.123 35,134.5C 39.342,124.483 44.1753,114.816 49.5,105.5C 55.7528,96.5722 62.4195,87.9056 69.5,79.5C 110.439,37.3992 160.439,18.7326 219.5,23.5 Z"/></g>
<g><path style="opacity:1" fill="#04192e" d="M 107.5,81.5 C 105.539,83.9635 103.372,86.2968 101,88.5C 100.51,89.7932 100.343,91.1266 100.5,92.5C 97.3484,91.9586 94.8484,92.9586 93,95.5C 92.6213,97.5705 93.4547,99.0705 95.5,100C 94.6667,100.833 93.8333,101.667 93,102.5C 91.6618,99.9177 89.8285,99.2511 87.5,100.5C 92.8773,92.7888 99.544,86.4555 107.5,81.5 Z"/></g>
<g><path style="opacity:1" fill="#0e4a77" d="M 348.5,175.5 C 350.014,181.595 350.68,187.928 350.5,194.5C 350.499,199.013 350.166,203.347 349.5,207.5C 349.53,196.819 349.196,186.152 348.5,175.5 Z"/></g>
<g><path style="opacity:1" fill="#0c70aa" d="M 26.5,167.5 C 25.3888,180.835 25.3888,194.169 26.5,207.5C 27.1667,196.833 27.8333,186.167 28.5,175.5C 29.1338,194.855 30.1338,214.189 31.5,233.5C 31.3333,235.5 31.1667,237.5 31,239.5C 30.4332,234.166 29.9332,228.833 29.5,223.5C 28.5,223.5 27.5,223.5 26.5,223.5C 27.1942,228.805 27.5276,234.138 27.5,239.5C 22.723,215.541 22.3897,191.541 26.5,167.5 Z"/></g>
<g><path style="opacity:1" fill="#050e1c" d="M 372.5,239.5 C 377.833,212.833 377.833,186.167 372.5,159.5C 373.985,154.198 375.652,148.865 377.5,143.5C 378.671,148.387 380.338,153.053 382.5,157.5C 380.689,162.843 380.689,168.01 382.5,173C 380.719,181.742 379.386,190.575 378.5,199.5C 379.234,207.921 380.568,216.088 382.5,224C 381.789,226.796 381.122,229.63 380.5,232.5C 381.983,236.635 381.816,240.635 380,244.5C 378.936,240.808 377.77,237.142 376.5,233.5C 375.596,237.867 375.929,242.2 377.5,246.5C 378.881,247 379.547,248 379.5,249.5C 379.14,251.608 378.473,253.608 377.5,255.5C 375.802,250.079 374.136,244.746 372.5,239.5 Z"/></g>
<g><path style="opacity:1" fill="#010c14" d="M 348.5,175.5 C 349.196,186.152 349.53,196.819 349.5,207.5C 346.66,249.011 329.993,283.844 299.5,312C 281.326,327.457 260.659,338.29 237.5,344.5C 235.143,344.663 232.81,344.497 230.5,344C 233.278,342.608 236.278,342.108 239.5,342.5C 239.5,341.5 239.5,340.5 239.5,339.5C 231.558,340.601 223.558,341.935 215.5,343.5C 204.833,344.833 194.167,344.833 183.5,343.5C 179.597,343.8 175.764,344.467 172,345.5C 167.882,344.462 163.715,343.628 159.5,343C 171.297,341.961 171.297,340.795 159.5,339.5C 159.5,338.5 159.5,337.5 159.5,336.5C 156.183,335.779 152.849,335.612 149.5,336C 154.573,337.661 154.573,338.494 149.5,338.5C 145.231,337.198 140.898,336.198 136.5,335.5C 129.648,332.483 122.981,328.983 116.5,325C 111.222,321.003 105.888,317.003 100.5,313C 89.8967,302.733 80.3967,291.567 72,279.5C 68.5328,273.846 65.6995,267.846 63.5,261.5C 62.9355,256.31 64.6021,255.31 68.5,258.5C 69.3857,257.675 69.719,256.675 69.5,255.5C 67.1432,255.663 64.8098,255.497 62.5,255C 63.7019,249.879 63.7019,244.712 62.5,239.5C 61.5,239.5 60.5,239.5 59.5,239.5C 61.6425,233.732 62.9758,227.732 63.5,221.5C 63.3333,220.833 63.1667,220.167 63,219.5C 62.5495,222.106 61.0495,223.439 58.5,223.5C 55.8092,209.041 53.8092,194.541 52.5,180C 52.8333,178.5 53.1667,177 53.5,175.5C 54.48,178.086 54.8134,180.753 54.5,183.5C 55.5,183.5 56.5,183.5 57.5,183.5C 56.9567,193.315 57.79,202.981 60,212.5C 60.3333,212.833 60.6667,213.167 61,213.5C 61.2382,199.307 59.7382,185.307 56.5,171.5C 56.6667,170.167 56.8333,168.833 57,167.5C 58.2525,170.014 58.7525,172.68 58.5,175.5C 59.5,175.5 60.5,175.5 61.5,175.5C 60.8333,170.167 60.1667,164.833 59.5,159.5C 58.325,159.719 57.325,159.386 56.5,158.5C 57.3482,156.591 57.6816,154.591 57.5,152.5C 63.4138,132.655 73.4138,115.322 87.5,100.5C 89.8285,99.2511 91.6618,99.9177 93,102.5C 93.8333,101.667 94.6667,100.833 95.5,100C 93.4547,99.0705 92.6213,97.5705 93,95.5C 94.8484,92.9586 97.3484,91.9586 100.5,92.5C 100.343,91.1266 100.51,89.7932 101,88.5C 103.372,86.2968 105.539,83.9635 107.5,81.5C 123.286,68.2686 141.286,59.1019 161.5,54C 231.741,40.0597 287.241,62.2264 328,120.5C 338.251,137.649 345.084,155.982 348.5,175.5 Z"/></g>
<g><path style="opacity:1" fill="#fbfcfc" d="M 107.5,100.5 C 160.501,100.333 213.501,100.5 266.5,101C 283.878,104.044 294.378,114.211 298,131.5C 298.923,154.199 298.59,176.866 297,199.5C 287.464,220.024 271.298,228.691 248.5,225.5C 264.146,244.313 279.979,262.98 296,281.5C 297.316,284.688 297.816,288.022 297.5,291.5C 285.495,291.667 273.495,291.5 261.5,291C 242.928,269.185 224.595,247.185 206.5,225C 184.169,224.5 161.836,224.333 139.5,224.5C 139.5,246.833 139.5,269.167 139.5,291.5C 128.833,291.5 118.167,291.5 107.5,291.5C 107.5,227.833 107.5,164.167 107.5,100.5 Z"/></g>
<g><path style="opacity:1" fill="#010c14" d="M 142.5,132.5 C 183.227,132.017 223.894,132.517 264.5,134C 265.659,152.426 265.825,170.926 265,189.5C 264.228,190.849 263.061,191.682 261.5,192C 221.5,192.667 181.5,192.667 141.5,192C 140.874,191.25 140.374,190.416 140,189.5C 139.333,171.5 139.333,153.5 140,135.5C 140.698,134.309 141.531,133.309 142.5,132.5 Z"/></g>
<g><path style="opacity:1" fill="#050f1c" d="M 57.5,152.5 C 57.6816,154.591 57.3482,156.591 56.5,158.5C 57.325,159.386 58.325,159.719 59.5,159.5C 60.1667,164.833 60.8333,170.167 61.5,175.5C 60.5,175.5 59.5,175.5 58.5,175.5C 58.7525,172.68 58.2525,170.014 57,167.5C 56.8333,168.833 56.6667,170.167 56.5,171.5C 59.7382,185.307 61.2382,199.307 61,213.5C 60.6667,213.167 60.3333,212.833 60,212.5C 57.79,202.981 56.9567,193.315 57.5,183.5C 56.5,183.5 55.5,183.5 54.5,183.5C 54.8134,180.753 54.48,178.086 53.5,175.5C 53.1667,177 52.8333,178.5 52.5,180C 53.8092,194.541 55.8092,209.041 58.5,223.5C 61.0495,223.439 62.5495,222.106 63,219.5C 63.1667,220.167 63.3333,220.833 63.5,221.5C 62.9758,227.732 61.6425,233.732 59.5,239.5C 60.5,239.5 61.5,239.5 62.5,239.5C 63.7019,244.712 63.7019,249.879 62.5,255C 64.8098,255.497 67.1432,255.663 69.5,255.5C 69.719,256.675 69.3857,257.675 68.5,258.5C 64.6021,255.31 62.9355,256.31 63.5,261.5C 50.1983,232.537 46.365,202.203 52,170.5C 53.3671,164.241 55.2004,158.241 57.5,152.5 Z"/></g>
<g><path style="opacity:1" fill="#091121" d="M 49.5,293.5 C 58.3401,306.351 68.3401,318.351 79.5,329.5C 78.0783,329.291 76.745,328.791 75.5,328C 73.2852,325.448 70.7852,323.282 68,321.5C 66.1105,321.785 64.7771,322.785 64,324.5C 63.8816,319.911 63.0482,316.244 61.5,313.5C 60.325,313.719 59.325,313.386 58.5,312.5C 57.9479,310.667 57.1145,309 56,307.5C 55,309.833 53.3333,311.5 51,312.5C 49.963,309.329 50.7964,306.829 53.5,305C 50.7924,303.601 50.1257,301.601 51.5,299C 50.1153,297.403 49.4486,295.57 49.5,293.5 Z"/></g>
<g><path style="opacity:1" fill="#05101e" d="M 136.5,335.5 C 140.898,336.198 145.231,337.198 149.5,338.5C 154.573,338.494 154.573,337.661 149.5,336C 152.849,335.612 156.183,335.779 159.5,336.5C 159.5,337.5 159.5,338.5 159.5,339.5C 171.297,340.795 171.297,341.961 159.5,343C 163.715,343.628 167.882,344.462 172,345.5C 175.764,344.467 179.597,343.8 183.5,343.5C 194.167,344.833 204.833,344.833 215.5,343.5C 223.558,341.935 231.558,340.601 239.5,339.5C 239.5,340.5 239.5,341.5 239.5,342.5C 236.278,342.108 233.278,342.608 230.5,344C 232.81,344.497 235.143,344.663 237.5,344.5C 210.953,351.322 184.287,351.155 157.5,344C 150.039,342.02 143.039,339.187 136.5,335.5 Z"/></g>
</svg>
